<svg width="31" height="36" viewBox="0 0 31 36" fill="none" xmlns="http://www.w3.org/2000/svg">
<path d="M9.11712 8.05706C9.00123 8.01395 8.87758 7.99491 8.75391 8.00116C8.63024 8.0074 8.5092 8.03879 8.39837 8.09336C8.28754 8.14793 8.1893 8.2245 8.10981 8.31828C8.03031 8.41207 7.97127 8.52105 7.93637 8.6384L7.03642 11.6606C6.97338 11.8728 6.99267 12.1006 7.09051 12.2994C7.18836 12.4983 7.35775 12.654 7.56559 12.7362L15.6652 15.9362C15.8801 16.0213 16.1199 16.0213 16.3348 15.9362L24.4344 12.7362C24.6423 12.654 24.8116 12.4983 24.9095 12.2994C25.0073 12.1006 25.0266 11.8728 24.9636 11.6606L24.0636 8.6384C24.0287 8.52105 23.9697 8.41207 23.8902 8.31828C23.8107 8.2245 23.7125 8.14793 23.6016 8.09336C23.4908 8.03879 23.3698 8.0074 23.2461 8.00116C23.1224 7.99491 22.9988 8.01395 22.8829 8.05706L16 10.6064L9.11712 8.05706ZM8.99472 11.3869L9.39071 10.0571L15.6832 12.3877C15.8874 12.4636 16.1126 12.4636 16.3168 12.3877L22.6093 10.0571L23.0053 11.3869L16 14.1513L8.99472 11.3851V11.3869Z" fill="white"/>
<path d="M4.90039 26.7773C4.90039 26.0026 5.17383 25.4102 5.7207 25C6.26758 24.5807 7.25195 24.1432 8.67383 23.6875C10.0957 23.2227 11.2214 22.7669 12.0508 22.3203C14.3112 21.099 15.4414 19.4538 15.4414 17.3848C15.4414 16.3092 15.1406 15.3522 14.5391 14.5137C13.9284 13.666 13.0579 13.0052 11.9277 12.5312C10.7884 12.0573 9.51237 11.8203 8.09961 11.8203C6.67773 11.8203 5.41081 12.0801 4.29883 12.5996C3.18685 13.11 2.32552 13.8346 1.71484 14.7734C1.09505 15.7122 0.785156 16.7786 0.785156 17.9727H4.88672C4.88672 17.0612 5.17383 16.3548 5.74805 15.8535C6.32227 15.3431 7.12891 15.0879 8.16797 15.0879C9.17057 15.0879 9.94987 15.3021 10.5059 15.7305C11.0618 16.1497 11.3398 16.7057 11.3398 17.3984C11.3398 18.0456 11.0163 18.5879 10.3691 19.0254C9.71289 19.4629 8.7513 19.873 7.48438 20.2559C5.15104 20.9577 3.45117 21.8281 2.38477 22.8672C1.31836 23.9062 0.785156 25.2005 0.785156 26.75C0.785156 28.4727 1.43685 29.8262 2.74023 30.8105C4.04362 31.7858 5.79818 32.2734 8.00391 32.2734C9.53516 32.2734 10.9297 31.9954 12.1875 31.4395C13.4453 30.8743 14.4069 30.1042 15.0723 29.1289C15.7285 28.1536 16.0566 27.0234 16.0566 25.7383H11.9414C11.9414 27.9349 10.6289 29.0332 8.00391 29.0332C7.02865 29.0332 6.26758 28.8372 5.7207 28.4453C5.17383 28.0443 4.90039 27.4883 4.90039 26.7773Z" fill="white"/>
<path d="M23.0996 26.7773C23.0996 26.0026 22.8262 25.4102 22.2793 25C21.7324 24.5807 20.748 24.1432 19.3262 23.6875C17.9043 23.2227 16.7786 22.7669 15.9492 22.3203C13.6888 21.099 12.5586 19.4538 12.5586 17.3848C12.5586 16.3092 12.8594 15.3522 13.4609 14.5137C14.0716 13.666 14.9421 13.0052 16.0723 12.5312C17.2116 12.0573 18.4876 11.8203 19.9004 11.8203C21.3223 11.8203 22.5892 12.0801 23.7012 12.5996C24.8132 13.11 25.6745 13.8346 26.2852 14.7734C26.9049 15.7122 27.2148 16.7786 27.2148 17.9727H23.1133C23.1133 17.0612 22.8262 16.3548 22.252 15.8535C21.6777 15.3431 20.8711 15.0879 19.832 15.0879C18.8294 15.0879 18.0501 15.3021 17.4941 15.7305C16.9382 16.1497 16.6602 16.7057 16.6602 17.3984C16.6602 18.0456 16.9837 18.5879 17.6309 19.0254C18.2871 19.4629 19.2487 19.873 20.5156 20.2559C22.849 20.9577 24.5488 21.8281 25.6152 22.8672C26.6816 23.9062 27.2148 25.2005 27.2148 26.75C27.2148 28.4727 26.5632 29.8262 25.2598 30.8105C23.9564 31.7858 22.2018 32.2734 19.9961 32.2734C18.4648 32.2734 17.0703 31.9954 15.8125 31.4395C14.5547 30.8743 13.5931 30.1042 12.9277 29.1289C12.2715 28.1536 11.9434 27.0234 11.9434 25.7383H16.0586C16.0586 27.9349 17.3711 29.0332 19.9961 29.0332C20.9714 29.0332 21.7324 28.8372 22.2793 28.4453C22.8262 28.0443 23.0996 27.4883 23.0996 26.7773Z" fill="#4A9688"/>
<path d="M16.2898 0.0600466C16.1989 0.020494 16.0999 0 15.9997 0C15.8994 0 15.8004 0.020494 15.7095 0.0600466L5.39673 4.56014C5.27529 4.61314 5.17306 4.69818 5.10262 4.80479C5.03218 4.9114 4.9966 5.03493 5.00026 5.1602C5.00391 5.28547 5.04663 5.40701 5.12318 5.50987C5.19973 5.61273 5.30676 5.69243 5.43111 5.73917L15.7439 9.59639C15.9081 9.65791 16.0913 9.65791 16.2554 9.59639L24.2499 6.60833V14.1428C23.8852 14.1428 23.5355 14.2782 23.2776 14.5194C23.0197 14.7605 22.8749 15.0875 22.8749 15.4285V18H27V15.4285C27 15.0875 26.8551 14.7605 26.5973 14.5194C26.3394 14.2782 25.9896 14.1428 25.625 14.1428V6.09275L26.5682 5.73917C26.6926 5.69243 26.7996 5.61273 26.8762 5.50987C26.9527 5.40701 26.9954 5.28547 26.9991 5.1602C27.0027 5.03493 26.9672 4.9114 26.8967 4.80479C26.8263 4.69818 26.7241 4.61314 26.6026 4.56014L16.2898 0.0600466V0.0600466ZM15.9997 8.30551L7.41667 5.09758L15.9997 1.35222L24.5827 5.09758L15.9997 8.30551Z" fill="white"/>
</svg>
